Patient4_TMGait_0pt4_01_left_33_EMG.mot
version=1
nRows=33
nColumns=33
inDegrees=no
endheader
time	1LAddLong	2LGlutMax	3LGlutMed	4LIliopsoas	5LSemiMemb	6LBicFemLong	7LRecFem	8LVastMed	9LVastLat	10LGasMed	11LTibAnt	12lTibPost	13LPeroneusLong	14LSol	15LExtDigLong	16LFlexDigLong	17RAddLong	18RGlutMax	19RGlutMed	20RIliopsoas	21RSemiMemb	22RBicFemLong	23RRecFem	24RVastMed	25RVastLat	26RGasMed	27RTibAnt	28RTibPost	29RPeroneusLong	30RSol	31RExtDigLong	32RFlexDigLong
41.245	0.014496	-0.27023	-0.42068	-0.003967	-0.037537	-0.10208	-0.62103	-0.018768	0.14603	-0.015411	0.29587	-0.012054	0.031586	-0.07782	0.32272	-0.11643	0.018616	0.04425	0.080261	-0.001678	-0.004578	0.14923	0.18951	-0.16876	-0.029755	-0.005798	-0.019684	-0.010834	-0.031433	0.2269	-0.00473	-0.004883
41.246	0.010529	-0.18158	-0.12131	0.011902	-0.048981	-0.15579	-0.51651	-0.000916	0.22079	-0.061798	0.2861	-0.025787	0.24857	0.034485	0.49713	0.081024	0.11398	0.19424	0.14084	-0.012817	0.012207	0.096283	0.17273	-0.18951	-0.023499	-0.022125	0.31021	0.004425	-0.069275	0.42313	0.001373	-0.011139
41.247	-0.004578	-0.083923	0.062256	0.028534	-0.062866	-0.066071	-0.36545	0.013885	0.34744	-0.060883	0.2919	-0.01709	0.24628	0.25467	0.58304	-0.49469	0.15625	0.32684	0.15335	-0.012054	-0.005035	-0.001831	0.16541	-0.21255	-0.022888	-0.010071	0.1265	-0.006409	0.04715	0.22385	-0.001373	-0.005646
41.248	-0.010681	-0.087738	0.007629	0.02121	-0.057526	0.008545	-0.30975	0.024872	0.31555	-0.029602	0.44357	-0.019836	0.022125	0.31204	0.61676	-0.15732	0.1564	0.40375	0.16007	0.098877	-0.013733	-0.038757	0.14191	-0.22873	-0.028381	-0.009003	-0.80337	-0.002594	0.068054	0.057373	0.002441	-0.005188
41.249	-0.009918	0.010986	-0.042725	0.001221	-0.0737	0.11429	-0.30685	0.018158	0.28564	0.011292	0.075531	-0.019836	-0.16388	0.35934	1.0768	0.63232	0.085907	0.45578	0.1152	0.19547	-0.030518	-0.016632	0.20248	-0.21057	-0.024109	-0.001526	-0.80368	-0.004578	0.14664	-0.095978	0.001831	-0.007629
41.25	0.016632	0.048981	0.078888	0.009003	0.003662	0.177	-0.37354	0.011902	0.22079	-0.066833	-0.13626	-0.0177	-0.070038	0.50949	-0.15595	-0.27084	0.055542	0.54504	0.27329	0.095978	0.003662	0.025482	0.11887	-0.16922	0.007629	0.014648	-0.24597	-0.001373	0.28641	-0.17258	-0.000153	-0.010071
41.251	0.01236	0.1506	0.22766	0.023651	0.040588	0.15167	-0.50766	0.040131	0.053711	-0.10391	-0.50613	-0.019989	0.055237	0.41641	-0.24567	0.40726	0.056305	0.61996	0.26184	0.088959	0.018005	0.073242	0.11658	-0.14832	0.004425	0.017395	0.26062	-0.002289	0.26947	-0.11185	0	0.001068
41.252	0.025177	0.15656	0.089264	0.005493	-0.006256	-0.016937	-0.64621	0.026855	-0.084686	-0.029144	-0.23377	-0.019836	-0.045013	0.16342	-1.3345	-0.46051	0.017548	0.70786	0.17578	0.11734	0.023956	0.10544	0.1474	-0.10727	0.012054	0.019379	0.27573	0.001373	0.42313	-0.065918	-0.001221	0.000458
41.253	0.023346	0.014954	-0.21805	-0.01297	-0.019836	0.003662	-0.76492	0.007782	-0.26504	0.026855	-0.34439	-0.021057	-0.031586	0.12344	-1.2672	-0.018311	-0.016632	0.72601	0.13062	0.11139	0.00824	0.22537	0.1294	-0.050964	0.02655	0.031128	-0.69015	-0.007172	0.3595	-0.18433	0.00412	-0.002899
41.254	0.011597	-0.007477	-0.25543	-0.012665	-0.039063	-0.011597	-0.68237	-0.036621	-0.22919	-0.003967	-0.38544	-0.02121	0.029907	-0.0383	-1.2634	-0.024872	-0.04364	0.7402	0.18448	0.069885	-0.008392	0.23056	0.092468	0.00061	0.033722	0.016174	-0.11566	-0.009155	0.10025	-0.24368	-0.004578	-0.013428
41.255	0.018616	-0.007477	-0.20081	-0.013733	-0.039978	-0.091705	-0.47653	-0.057373	0.035706	-0.01236	-0.14664	-0.019073	0.032959	-0.19653	-0.7901	-0.5394	-0.070953	0.78781	0.15778	-0.045013	-0.013428	0.15488	0.073242	0.056458	0.024109	0.00351	0.62164	-0.00824	-0.13931	-0.019073	-0.000153	-0.012054
41.256	-0.002441	0.081482	-0.12573	0.00824	-0.021515	0.093536	-0.30685	-0.037994	0.078735	-0.001526	-0.13886	-0.013275	-0.006714	-0.12528	-0.48202	0.23941	-0.083923	0.80643	0.094604	-0.056152	-0.045013	0.094757	0.022888	0.089874	0.031281	0.000916	0.80444	-0.007172	-0.10544	0.14999	-0.007629	-0.015259
41.257	-0.008392	0.24384	-0.10849	0.00412	-0.032654	0.31555	-0.2652	-0.018311	0.18692	0.023804	0.037231	-0.014191	-0.024872	0.091858	0.18341	0.046387	-0.067596	0.849	0.019989	-0.066376	-0.054016	0.11032	0.0354	0.11749	0.024567	0.005493	0.58655	-0.005188	0.16739	0.1474	-0.000153	-0.014343
41.258	0.002899	0.3569	-0.04715	-0.003815	-0.041351	0.37552	-0.31052	-0.007935	0.19852	0.040436	0.10422	-0.014191	-0.065155	0.20828	-0.42343	0.13504	-0.062561	0.89264	0.03006	0.001526	-0.046082	0.1506	0.057831	0.14404	0.018921	0.001373	0.34393	-0.002289	0.10315	0.025635	-0.001526	-0.011597
41.259	-0.002289	0.39581	0.12222	-0.007935	-0.028687	0.30868	-0.30441	-0.006256	0.13657	-0.000153	-0.00473	-0.014648	-0.054169	0.13153	-0.2359	0.14801	-0.042877	0.86853	0.041809	0.044708	-0.018463	0.17807	0.053558	0.13794	-0.001373	0.000305	-0.058899	-0.007935	-0.016479	0.12299	0.00473	-0.014496
41.26	-0.001526	0.42297	0.2034	0.016327	-0.032806	0.25055	-0.15243	0.018616	0.036774	-0.019836	-0.18478	-0.009308	0.020294	0.083618	0.045776	0.034485	-0.049744	0.93338	-0.005951	0.05661	-0.027771	0.13153	0.097961	0.082703	-0.013428	-0.007172	-0.31937	-0.009613	0.049744	0.30426	0.001984	-0.013885
41.261	-0.008087	0.46555	0.076599	-0.028992	-0.054474	0.25269	-0.09964	0.025177	-0.22675	-0.03067	0.029144	-0.010223	0.099945	0.14496	0.062866	0.20294	-0.053711	0.9465	0.001984	0.054626	-0.010376	0.15091	0.13123	0.08316	-0.013275	-0.006104	-1.1035	-0.011292	0.13168	0.26474	0.00061	-0.017242
41.262	-0.002136	0.41184	-0.006561	0.004272	-0.049286	0.12863	-0.16708	0.014343	-0.2385	-0.024719	0.25925	-0.014954	0.029755	-0.078735	0.68558	0.09613	-0.037842	0.91492	-0.074921	-0.076599	0.051575	0.23102	0.11643	0.087128	0.00412	-0.001984	-0.74402	-0.001678	0.048981	0.14084	-0.001526	-0.016174
41.263	0.003357	0.35248	-0.0354	0.008545	-0.037231	0.048828	-0.10941	0.003357	-0.12634	-0.014038	0.40878	-0.004425	-0.070038	-0.28412	0.80856	0.68268	-0.046997	0.92316	-0.023956	-0.1738	0.11429	0.097351	0.15137	0.039368	-0.027924	-0.001373	-0.28595	-0.008698	0.05722	0.15045	-0.00061	-0.013733
41.264	0.007019	0.30823	0.008392	-0.028534	-0.024109	-0.2269	-0.1239	-0.002747	-0.039368	-0.006256	-0.004425	-0.001984	-0.11475	-0.46524	0.55191	-0.74677	-0.045319	0.90424	-0.01358	-0.17929	0.13123	-0.063324	0.15182	0.026855	-0.007172	-0.005951	-0.25971	-0.006104	0.095978	0.14725	0.000153	-0.026245
41.265	0.007782	0.16357	-0.014191	-0.007477	-0.013733	-0.25955	-0.12497	-0.003662	-0.049286	-0.046234	-0.21637	-0.001984	-0.057831	-0.2858	0.60013	0.4097	-0.070038	0.93414	-0.015564	-0.067139	0.1178	-0.089722	0.15182	0.031738	-0.025177	-0.007935	-0.14572	-0.006866	0.072174	0.065613	0.001526	-0.02655
41.266	0.007782	-0.035706	-0.23239	-0.003052	0.001068	-0.1976	-0.13733	0.009766	-0.13901	-0.047913	-0.006256	-0.016479	-0.103	-0.29388	0.41718	0.078888	-0.048523	0.93582	0.012665	0.045319	0.12329	-0.035553	0.14801	-0.000153	-0.030975	-0.011597	-0.20996	-0.005341	0.041962	0.045471	-0.005493	-0.032043
41.267	0.007324	-0.11154	-0.27496	-0.008392	0.015259	-0.16235	-0.098419	0.018005	-0.22308	-0.039978	-0.099487	-0.028076	0.067139	-0.30777	-0.064392	-0.20721	-0.010071	0.87647	-0.12802	0.12589	0.10407	0.022888	0.15793	0.006866	-0.035095	-0.003967	-0.39948	-0.00824	0.10208	0.035095	0.002899	-0.029297
41.268	0.019836	-0.012512	-0.13672	-0.019531	0.036774	-0.023651	-0.23529	0.02243	-0.16312	-0.047913	-0.27359	-0.00885	0.19623	-0.37689	-0.011597	0.25131	0.0737	0.8873	-0.072327	0.15259	0.055237	0.017548	0.1831	0.015564	-0.046692	0.007477	-0.22034	-0.006866	0.10269	-0.024567	0.002594	-0.028992
41.269	0.023651	0.10513	0.033875	0	0.027161	-0.29358	-0.30563	0.027161	-0.13306	-0.036316	0.079041	-0.005341	0.084076	-0.39719	0.10407	-0.26337	0.14694	0.85846	-0.075378	0.11002	0.044403	-0.014496	0.19226	0.031891	-0.048523	-0.005798	0.1738	-0.00946	-0.05127	-0.058441	0.00412	-0.030518
41.27	0.004425	0.14893	0.029297	0.00824	-0.00824	-0.36392	-0.25253	0.028229	-0.11765	-0.044098	0.39078	-0.007935	-0.004272	-0.12573	0.62164	0.16098	0.14923	0.80643	-0.081329	0.10986	0.040588	-0.003815	0.15213	-0.012512	-0.04425	-0.011902	0.3093	-0.001984	-0.11276	-0.094757	0.000458	-0.024719
41.271	0.009766	0.15213	-0.005493	0.002899	-0.023804	-0.29144	-0.30716	-0.007324	0.011749	-0.053253	-0.045929	-0.007629	0.042877	0.22324	1.6367	-1.003	0.096588	0.7164	-0.13153	0.055695	0.003662	-0.029297	0.16693	0.052795	-0.042725	0.002747	0.11581	-0.004272	-0.05249	-0.16235	0.001526	-0.027466
41.272	0.010223	0.2301	-0.06546	-0.003052	-0.027313	-0.17273	-0.24689	-0.026245	0.093994	-0.007324	-0.15518	-0.013733	-0.047302	0.27634	-1.1432	-0.62317	-0.026855	0.61996	-0.071106	-0.17502	-0.043182	-0.062561	0.1294	0.020294	-0.045166	0.000916	-0.066833	-0.000458	0.014191	-0.26352	0.002289	-0.025482
41.273	-0.012817	0.31372	-0.072021	-0.001221	0.016479	-0.090485	-0.11978	-0.021057	0.14526	0.010986	-0.080872	-0.013123	-0.13779	0.289	-0.89523	0.64606	-0.077667	0.54474	0.028839	-0.11353	-0.069733	-0.068665	0.12726	-0.005798	-0.031281	-0.00061	0.20599	-0.00473	-0.058441	-0.25116	-0.001831	-0.015869
41.274	-0.026398	0.34744	0.019226	0.003052	0.02121	0.007629	-0.035095	-0.015411	0.18051	0.01236	0.1033	-0.002136	-0.084839	0.45441	-1.2534	0.89004	-0.046082	0.44998	-0.002136	-0.012512	-0.083008	-0.09491	0.14435	0.043793	-0.046082	-0.001373	0.42725	-0.000458	-0.017548	-0.099487	0.006561	-0.014496
41.275	-0.019836	0.3566	0.029755	0.010834	-0.047607	0.02121	-0.08316	0.00061	0.24033	0.019989	-0.23773	0.002289	-0.112	0.30472	-0.29053	-0.41199	-0.000153	0.35812	-0.049896	-0.0383	-0.10819	-0.028381	0.13626	0.031433	-0.024567	0.00061	0.24628	-0.00351	0.10666	0.060425	0	-0.010071
41.276	-0.00885	0.27176	0.031281	0.020752	-0.11871	0.006104	-0.079498	0.005493	0.27573	0.014648	0.10071	0.000153	-0.12375	0.19226	0.1648	0.090485	-0.003815	0.22537	-0.095673	-0.055695	-0.11963	-0.001831	0.13138	0.026093	-0.019379	-0.00061	0.075073	-0.00351	0.026398	0.18204	0.003967	-0.016174
41.277	0.000763	0.20203	-0.049591	0.019684	-0.10269	-0.014801	-0.041656	-0.005035	0.31921	-0.007935	-0.17761	-0.003204	-0.055542	0.21393	-0.19531	-0.10773	-0.010223	0.061493	-0.092316	0.032501	-0.12695	-0.10696	0.15411	0.072479	-0.014648	0.000763	-0.077057	-0.003204	0.015259	0.11597	0.000458	-0.027466
